<svg viewBox="0 0 242 202" xmlns="http://www.w3.org/2000/svg"
     font-family="'Courier New', Consolas, monospace">
  <!-- outer border -->
  <rect x="0.5" y="0.5" width="241" height="201" rx="4" fill="#111" stroke="#444" stroke-width="1"/>

  <!-- Row 0: [0, 0, 50, 90, 20, 0] -->
  <rect x="1"   y="1"  width="38" height="38" fill="#000000" stroke="#333" stroke-width="0.5"/>
  <text x="20"  y="24" text-anchor="middle" font-size="11" fill="#555">0</text>

  <rect x="41"  y="1"  width="38" height="38" fill="#000000" stroke="#333" stroke-width="0.5"/>
  <text x="60"  y="24" text-anchor="middle" font-size="11" fill="#555">0</text>

  <rect x="81"  y="1"  width="38" height="38" fill="#808080" stroke="#999" stroke-width="0.5"/>
  <text x="100" y="24" text-anchor="middle" font-size="11" fill="#222">50</text>

  <rect x="121" y="1"  width="38" height="38" fill="#e6e6e6" stroke="#ccc" stroke-width="0.5"/>
  <text x="140" y="24" text-anchor="middle" font-size="11" fill="#444">90</text>

  <rect x="161" y="1"  width="38" height="38" fill="#333333" stroke="#555" stroke-width="0.5"/>
  <text x="180" y="24" text-anchor="middle" font-size="11" fill="#999">20</text>

  <rect x="201" y="1"  width="38" height="38" fill="#000000" stroke="#333" stroke-width="0.5"/>
  <text x="220" y="24" text-anchor="middle" font-size="11" fill="#555">0</text>

  <!-- Row 1: [0, 30, 80, 99, 0, 0] -->
  <rect x="1"   y="41" width="38" height="38" fill="#000000" stroke="#333" stroke-width="0.5"/>
  <text x="20"  y="64" text-anchor="middle" font-size="11" fill="#555">0</text>

  <rect x="41"  y="41" width="38" height="38" fill="#4d4d4d" stroke="#666" stroke-width="0.5"/>
  <text x="60"  y="64" text-anchor="middle" font-size="11" fill="#bbb">30</text>

  <rect x="81"  y="41" width="38" height="38" fill="#cccccc" stroke="#aaa" stroke-width="0.5"/>
  <text x="100" y="64" text-anchor="middle" font-size="11" fill="#333">80</text>

  <rect x="121" y="41" width="38" height="38" fill="#ffffff" stroke="#ccc" stroke-width="0.5"/>
  <text x="140" y="64" text-anchor="middle" font-size="11" fill="#444">99</text>

  <rect x="161" y="41" width="38" height="38" fill="#000000" stroke="#333" stroke-width="0.5"/>
  <text x="180" y="64" text-anchor="middle" font-size="11" fill="#555">0</text>

  <rect x="201" y="41" width="38" height="38" fill="#000000" stroke="#333" stroke-width="0.5"/>
  <text x="220" y="64" text-anchor="middle" font-size="11" fill="#555">0</text>

  <!-- Row 2: [0, 0, 5, 99, 0, 0] -->
  <rect x="1"   y="81" width="38" height="38" fill="#000000" stroke="#333" stroke-width="0.5"/>
  <text x="20"  y="104" text-anchor="middle" font-size="11" fill="#555">0</text>

  <rect x="41"  y="81" width="38" height="38" fill="#000000" stroke="#333" stroke-width="0.5"/>
  <text x="60"  y="104" text-anchor="middle" font-size="11" fill="#555">0</text>

  <rect x="81"  y="81" width="38" height="38" fill="#0c0c0c" stroke="#333" stroke-width="0.5"/>
  <text x="100" y="104" text-anchor="middle" font-size="11" fill="#666">5</text>

  <rect x="121" y="81" width="38" height="38" fill="#ffffff" stroke="#ccc" stroke-width="0.5"/>
  <text x="140" y="104" text-anchor="middle" font-size="11" fill="#444">99</text>

  <rect x="161" y="81" width="38" height="38" fill="#000000" stroke="#333" stroke-width="0.5"/>
  <text x="180" y="104" text-anchor="middle" font-size="11" fill="#555">0</text>

  <rect x="201" y="81" width="38" height="38" fill="#000000" stroke="#333" stroke-width="0.5"/>
  <text x="220" y="104" text-anchor="middle" font-size="11" fill="#555">0</text>

  <!-- Row 3: [0, 0, 0, 99, 0, 0] -->
  <rect x="1"   y="121" width="38" height="38" fill="#000000" stroke="#333" stroke-width="0.5"/>
  <text x="20"  y="144" text-anchor="middle" font-size="11" fill="#555">0</text>

  <rect x="41"  y="121" width="38" height="38" fill="#000000" stroke="#333" stroke-width="0.5"/>
  <text x="60"  y="144" text-anchor="middle" font-size="11" fill="#555">0</text>

  <rect x="81"  y="121" width="38" height="38" fill="#000000" stroke="#333" stroke-width="0.5"/>
  <text x="100" y="144" text-anchor="middle" font-size="11" fill="#555">0</text>

  <rect x="121" y="121" width="38" height="38" fill="#ffffff" stroke="#ccc" stroke-width="0.5"/>
  <text x="140" y="144" text-anchor="middle" font-size="11" fill="#444">99</text>

  <rect x="161" y="121" width="38" height="38" fill="#000000" stroke="#333" stroke-width="0.5"/>
  <text x="180" y="144" text-anchor="middle" font-size="11" fill="#555">0</text>

  <rect x="201" y="121" width="38" height="38" fill="#000000" stroke="#333" stroke-width="0.5"/>
  <text x="220" y="144" text-anchor="middle" font-size="11" fill="#555">0</text>

  <!-- Row 4: [0, 0, 0, 90, 0, 0] -->
  <rect x="1"   y="161" width="38" height="38" fill="#000000" stroke="#333" stroke-width="0.5"/>
  <text x="20"  y="184" text-anchor="middle" font-size="11" fill="#555">0</text>

  <rect x="41"  y="161" width="38" height="38" fill="#000000" stroke="#333" stroke-width="0.5"/>
  <text x="60"  y="184" text-anchor="middle" font-size="11" fill="#555">0</text>

  <rect x="81"  y="161" width="38" height="38" fill="#000000" stroke="#333" stroke-width="0.5"/>
  <text x="100" y="184" text-anchor="middle" font-size="11" fill="#555">0</text>

  <rect x="121" y="161" width="38" height="38" fill="#e6e6e6" stroke="#ccc" stroke-width="0.5"/>
  <text x="140" y="184" text-anchor="middle" font-size="11" fill="#444">90</text>

  <rect x="161" y="161" width="38" height="38" fill="#000000" stroke="#333" stroke-width="0.5"/>
  <text x="180" y="184" text-anchor="middle" font-size="11" fill="#555">0</text>

  <rect x="201" y="161" width="38" height="38" fill="#000000" stroke="#333" stroke-width="0.5"/>
  <text x="220" y="184" text-anchor="middle" font-size="11" fill="#555">0</text>
</svg>
