<?xml version="1.0" encoding="utf-8" standalone="no"?>
<!DOCTYPE svg PUBLIC "-//W3C//DTD SVG 1.1//EN"
  "http://www.w3.org/Graphics/SVG/1.1/DTD/svg11.dtd">
<svg xmlns:xlink="http://www.w3.org/1999/xlink" width="461.52pt" height="346.32pt" viewBox="0 0 461.52 346.32" xmlns="http://www.w3.org/2000/svg" version="1.1">
 <metadata>
  <rdf:RDF xmlns:dc="http://purl.org/dc/elements/1.1/" xmlns:cc="http://creativecommons.org/ns#" xmlns:rdf="http://www.w3.org/1999/02/22-rdf-syntax-ns#">
   <cc:Work>
    <dc:type rdf:resource="http://purl.org/dc/dcmitype/StillImage"/>
    <dc:date>2026-06-28T22:19:15.913566</dc:date>
    <dc:format>image/svg+xml</dc:format>
    <dc:creator>
     <cc:Agent>
      <dc:title>Matplotlib v3.10.8, https://matplotlib.org/</dc:title>
     </cc:Agent>
    </dc:creator>
   </cc:Work>
  </rdf:RDF>
 </metadata>
 <defs>
  <style type="text/css">*{stroke-linejoin: round; stroke-linecap: butt}</style>
 </defs>
 <g id="figure_1">
  <g id="patch_1">
   <path d="M 0 346.32 
L 461.52 346.32 
L 461.52 0 
L 0 0 
L 0 346.32 
z
" style="fill: none"/>
  </g>
  <g id="axes_1">
   <g id="patch_2">
    <path d="M 7.2 339.12 
L 454.32 339.12 
L 454.32 7.2 
L 7.2 7.2 
L 7.2 339.12 
z
" style="fill: none"/>
   </g>
   <g id="matplotlib.axis_1"/>
   <g id="matplotlib.axis_2"/>
   <g id="patch_3">
    <path d="M 7.2 339.12 
L 7.2 7.2 
" style="fill: none; stroke: #cdd4dc; stroke-width: 0.8; stroke-linejoin: miter; stroke-linecap: square"/>
   </g>
   <g id="patch_4">
    <path d="M 454.32 339.12 
L 454.32 7.2 
" style="fill: none; stroke: #cdd4dc; stroke-width: 0.8; stroke-linejoin: miter; stroke-linecap: square"/>
   </g>
   <g id="patch_5">
    <path d="M 7.2 339.12 
L 454.32 339.12 
" style="fill: none; stroke: #cdd4dc; stroke-width: 0.8; stroke-linejoin: miter; stroke-linecap: square"/>
   </g>
   <g id="patch_6">
    <path d="M 7.2 7.2 
L 454.32 7.2 
" style="fill: none; stroke: #cdd4dc; stroke-width: 0.8; stroke-linejoin: miter; stroke-linecap: square"/>
   </g>
   <g id="PathCollection_1">
    <defs>
     <path id="m8a72bd81c2" d="M 0 4.1833 
C 1.109424 4.1833 2.173559 3.742521 2.95804 2.95804 
C 3.742521 2.173559 4.1833 1.109424 4.1833 0 
C 4.1833 -1.109424 3.742521 -2.173559 2.95804 -2.95804 
C 2.173559 -3.742521 1.109424 -4.1833 0 -4.1833 
C -1.109424 -4.1833 -2.173559 -3.742521 -2.95804 -2.95804 
C -3.742521 -2.173559 -4.1833 -1.109424 -4.1833 0 
C -4.1833 1.109424 -3.742521 2.173559 -2.95804 2.95804 
C -2.173559 3.742521 -1.109424 4.1833 0 4.1833 
z
" style="stroke: #137333"/>
    </defs>
    <g clip-path="url(#p8e6137aaed)">
     <use xlink:href="#m8a72bd81c2" x="81.72" y="93.253333" style="fill: #137333; stroke: #137333"/>
     <use xlink:href="#m8a72bd81c2" x="118.98" y="74.813333" style="fill: #137333; stroke: #137333"/>
     <use xlink:href="#m8a72bd81c2" x="51.912" y="56.373333" style="fill: #137333; stroke: #137333"/>
    </g>
   </g>
   <g id="text_1">
    <text style="font-size: 12px; font-family: 'DejaVu Sans'; text-anchor: start; fill: #1f2933" x="87.72" y="88.253333" transform="rotate(-0 87.72 88.253333)">cat</text>
   </g>
   <g id="text_2">
    <text style="font-size: 12px; font-family: 'DejaVu Sans'; text-anchor: start; fill: #1f2933" x="124.98" y="69.813333" transform="rotate(-0 124.98 69.813333)">dog</text>
   </g>
   <g id="text_3">
    <text style="font-size: 12px; font-family: 'DejaVu Sans'; text-anchor: start; fill: #1f2933" x="57.912" y="51.373333" transform="rotate(-0 57.912 51.373333)">lion</text>
   </g>
   <g id="PathCollection_2">
    <defs>
     <path id="m1102dcb0b3" d="M 0 4.1833 
C 1.109424 4.1833 2.173559 3.742521 2.95804 2.95804 
C 3.742521 2.173559 4.1833 1.109424 4.1833 0 
C 4.1833 -1.109424 3.742521 -2.173559 2.95804 -2.95804 
C 2.173559 -3.742521 1.109424 -4.1833 0 -4.1833 
C -1.109424 -4.1833 -2.173559 -3.742521 -2.95804 -2.95804 
C -3.742521 -2.173559 -4.1833 -1.109424 -4.1833 0 
C -4.1833 1.109424 -3.742521 2.173559 -2.95804 2.95804 
C -2.173559 3.742521 -1.109424 4.1833 0 4.1833 
z
" style="stroke: #1a73a8"/>
    </defs>
    <g clip-path="url(#p8e6137aaed)">
     <use xlink:href="#m1102dcb0b3" x="335.088" y="246.92" style="fill: #1a73a8; stroke: #1a73a8"/>
     <use xlink:href="#m1102dcb0b3" x="372.348" y="222.333333" style="fill: #1a73a8; stroke: #1a73a8"/>
     <use xlink:href="#m1102dcb0b3" x="320.184" y="277.653333" style="fill: #1a73a8; stroke: #1a73a8"/>
    </g>
   </g>
   <g id="text_4">
    <text style="font-size: 12px; font-family: 'DejaVu Sans'; text-anchor: start; fill: #1f2933" x="341.088" y="241.92" transform="rotate(-0 341.088 241.92)">Thailand</text>
   </g>
   <g id="text_5">
    <text style="font-size: 12px; font-family: 'DejaVu Sans'; text-anchor: start; fill: #1f2933" x="378.348" y="217.333333" transform="rotate(-0 378.348 217.333333)">Japan</text>
   </g>
   <g id="text_6">
    <text style="font-size: 12px; font-family: 'DejaVu Sans'; text-anchor: start; fill: #1f2933" x="326.184" y="272.653333" transform="rotate(-0 326.184 272.653333)">France</text>
   </g>
   <g id="PathCollection_3">
    <defs>
     <path id="m14b2ac6b53" d="M 0 4.1833 
C 1.109424 4.1833 2.173559 3.742521 2.95804 2.95804 
C 3.742521 2.173559 4.1833 1.109424 4.1833 0 
C 4.1833 -1.109424 3.742521 -2.173559 2.95804 -2.95804 
C 2.173559 -3.742521 1.109424 -4.1833 0 -4.1833 
C -1.109424 -4.1833 -2.173559 -3.742521 -2.95804 -2.95804 
C -3.742521 -2.173559 -4.1833 -1.109424 -4.1833 0 
C -4.1833 1.109424 -3.742521 2.173559 -2.95804 2.95804 
C -2.173559 3.742521 -1.109424 4.1833 0 4.1833 
z
" style="stroke: #b8232f"/>
    </defs>
    <g clip-path="url(#p8e6137aaed)">
     <use xlink:href="#m14b2ac6b53" x="96.624" y="253.066667" style="fill: #b8232f; stroke: #b8232f"/>
     <use xlink:href="#m14b2ac6b53" x="186.048" y="210.04" style="fill: #b8232f; stroke: #b8232f"/>
     <use xlink:href="#m14b2ac6b53" x="111.528" y="302.24" style="fill: #b8232f; stroke: #b8232f"/>
     <use xlink:href="#m14b2ac6b53" x="200.952" y="259.213333" style="fill: #b8232f; stroke: #b8232f"/>
    </g>
   </g>
   <g id="text_7">
    <text style="font-size: 12px; font-family: 'DejaVu Sans'; text-anchor: start; fill: #1f2933" x="102.624" y="248.066667" transform="rotate(-0 102.624 248.066667)">king</text>
   </g>
   <g id="text_8">
    <text style="font-size: 12px; font-family: 'DejaVu Sans'; text-anchor: start; fill: #1f2933" x="192.048" y="205.04" transform="rotate(-0 192.048 205.04)">queen</text>
   </g>
   <g id="text_9">
    <text style="font-size: 12px; font-family: 'DejaVu Sans'; text-anchor: start; fill: #1f2933" x="117.528" y="297.24" transform="rotate(-0 117.528 297.24)">man</text>
   </g>
   <g id="text_10">
    <text style="font-size: 12px; font-family: 'DejaVu Sans'; text-anchor: start; fill: #1f2933" x="206.952" y="254.213333" transform="rotate(-0 206.952 254.213333)">woman</text>
   </g>
   <g id="patch_7">
    <path d="M 110.948542 300.328171 
Q 104.076101 277.653668 97.852257 257.119101 
" style="fill: none; stroke-dasharray: 7.4,3.2; stroke-dashoffset: 0; stroke: #7a1f2b; stroke-width: 2; stroke-linecap: round"/>
    <path d="M 96.872351 262.849701 
L 97.852257 257.119101 
L 101.848794 261.341386 
" style="fill: none; stroke-dasharray: 7.4,3.2; stroke-dashoffset: 0; stroke: #7a1f2b; stroke-width: 2; stroke-linecap: round"/>
   </g>
   <g id="patch_8">
    <path d="M 200.372542 257.301504 
Q 193.500101 234.627001 187.276257 214.092434 
" style="fill: none; stroke-dasharray: 7.4,3.2; stroke-dashoffset: 0; stroke: #7a1f2b; stroke-width: 2; stroke-linecap: round"/>
    <path d="M 186.296351 219.823035 
L 187.276257 214.092434 
L 191.272794 218.314719 
" style="fill: none; stroke-dasharray: 7.4,3.2; stroke-dashoffset: 0; stroke: #7a1f2b; stroke-width: 2; stroke-linecap: round"/>
   </g>
   <g id="text_11">
    <text style="font-style: italic; font-size: 11.5px; font-family: 'DejaVu Sans'; text-anchor: start; fill: #7a1f2b" x="48.186" y="280.726667" transform="rotate(-0 48.186 280.726667)">king − man + woman ≈ queen</text>
   </g>
   <g id="legend_1">
    <g id="PathCollection_4">
     <g>
      <use xlink:href="#m8a72bd81c2" x="348.806484" y="21.872109" style="fill: #137333; stroke: #137333"/>
     </g>
    </g>
    <g id="text_12">
     <text style="font-size: 10.5px; font-family: 'DejaVu Sans'; text-anchor: start" x="367.706484" y="24.628359" transform="rotate(-0 367.706484 24.628359)">animals</text>
    </g>
    <g id="PathCollection_5">
     <g>
      <use xlink:href="#m1102dcb0b3" x="348.806484" y="37.284141" style="fill: #1a73a8; stroke: #1a73a8"/>
     </g>
    </g>
    <g id="text_13">
     <text style="font-size: 10.5px; font-family: 'DejaVu Sans'; text-anchor: start" x="367.706484" y="40.040391" transform="rotate(-0 367.706484 40.040391)">countries</text>
    </g>
    <g id="PathCollection_6">
     <g>
      <use xlink:href="#m14b2ac6b53" x="348.806484" y="52.696172" style="fill: #b8232f; stroke: #b8232f"/>
     </g>
    </g>
    <g id="text_14">
     <text style="font-size: 10.5px; font-family: 'DejaVu Sans'; text-anchor: start" x="367.706484" y="55.452422" transform="rotate(-0 367.706484 55.452422)">royalty/gender</text>
    </g>
   </g>
  </g>
 </g>
 <defs>
  <clipPath id="p8e6137aaed">
   <rect x="7.2" y="7.2" width="447.12" height="331.92"/>
  </clipPath>
 </defs>
</svg>
