<?xml version="1.0" encoding="utf-8" standalone="no"?>
<!DOCTYPE svg PUBLIC "-//W3C//DTD SVG 1.1//EN"
  "http://www.w3.org/Graphics/SVG/1.1/DTD/svg11.dtd">
<svg xmlns:xlink="http://www.w3.org/1999/xlink" width="742.32pt" height="224.253563pt" viewBox="0 0 742.32 224.253563" xmlns="http://www.w3.org/2000/svg" version="1.1">
 <metadata>
  <rdf:RDF xmlns:dc="http://purl.org/dc/elements/1.1/" xmlns:cc="http://creativecommons.org/ns#" xmlns:rdf="http://www.w3.org/1999/02/22-rdf-syntax-ns#">
   <cc:Work>
    <dc:type rdf:resource="http://purl.org/dc/dcmitype/StillImage"/>
    <dc:date>2026-06-28T21:00:56.569796</dc:date>
    <dc:format>image/svg+xml</dc:format>
    <dc:creator>
     <cc:Agent>
      <dc:title>Matplotlib v3.10.8, https://matplotlib.org/</dc:title>
     </cc:Agent>
    </dc:creator>
   </cc:Work>
  </rdf:RDF>
 </metadata>
 <defs>
  <style type="text/css">*{stroke-linejoin: round; stroke-linecap: butt}</style>
 </defs>
 <g id="figure_1">
  <g id="patch_1">
   <path d="M 0 224.253563 
L 742.32 224.253563 
L 742.32 0 
L 0 0 
L 0 224.253563 
z
" style="fill: none"/>
  </g>
  <g id="axes_1">
   <g id="patch_2">
    <path d="M 7.2 217.053563 
L 240.48 217.053563 
L 240.48 25.053563 
L 7.2 25.053563 
L 7.2 217.053563 
z
" style="fill: none"/>
   </g>
   <g id="line2d_1">
    <path d="M 17.803636 121.053563 
L 27.02419 106.664401 
L 31.989103 99.292706 
L 36.244743 93.342418 
L 39.79111 88.716106 
L 43.337476 84.446461 
L 46.17457 81.319337 
L 49.011663 78.472787 
L 51.848756 75.92691 
L 54.68585 73.699684 
L 57.522943 71.806836 
L 59.650763 70.614766 
L 61.778583 69.623089 
L 63.906403 68.835744 
L 66.034223 68.25586 
L 68.162043 67.885739 
L 70.289863 67.726853 
L 72.417683 67.779832 
L 74.545503 68.044467 
L 76.673323 68.519706 
L 78.801143 69.203661 
L 80.928963 70.093614 
L 83.056783 71.18603 
L 85.184603 72.476568 
L 88.021697 74.496503 
L 90.85879 76.84519 
L 93.695883 79.506043 
L 96.532977 82.460273 
L 100.079343 86.533658 
L 103.62571 90.987782 
L 107.172077 95.773518 
L 111.427717 101.879585 
L 117.101903 110.47705 
L 127.03173 126.089409 
L 134.124463 137.054087 
L 139.089377 144.338175 
L 143.345017 150.187085 
L 146.891383 154.711586 
L 150.43775 158.864855 
L 153.274843 161.889248 
L 156.111937 164.62529 
L 158.94903 167.053661 
L 161.786123 169.157214 
L 164.623217 170.921095 
L 166.751037 172.013511 
L 168.878857 172.903464 
L 171.006677 173.587419 
L 173.134497 174.062658 
L 175.262317 174.327293 
L 177.390137 174.380272 
L 179.517957 174.221386 
L 181.645777 173.851265 
L 183.773597 173.271381 
L 185.901417 172.484036 
L 188.029237 171.492359 
L 190.157057 170.300289 
L 192.99415 168.407441 
L 195.831244 166.180215 
L 198.668337 163.634338 
L 201.50543 160.787788 
L 204.342524 157.660664 
L 207.88889 153.391019 
L 211.435257 148.764707 
L 215.690897 142.814419 
L 220.65581 135.442724 
L 227.03927 125.531272 
L 229.876364 121.053563 
L 229.876364 121.053563 
" clip-path="url(#pbe9b82250f)" style="fill: none; stroke-dasharray: 5.18,2.24; stroke-dashoffset: 0; stroke: #7b8794; stroke-width: 1.4"/>
   </g>
   <g id="matplotlib.axis_1"/>
   <g id="matplotlib.axis_2"/>
   <g id="line2d_2">
    <path d="M 17.803636 82.659656 
L 229.876364 162.192683 
L 229.876364 162.192683 
" clip-path="url(#pbe9b82250f)" style="fill: none; stroke: #b8232f; stroke-width: 2.4; stroke-linecap: square"/>
   </g>
   <g id="patch_3">
    <path d="M 7.2 217.053563 
L 7.2 25.053563 
" style="fill: none; stroke: #cdd4dc; stroke-width: 0.8; stroke-linejoin: miter; stroke-linecap: square"/>
   </g>
   <g id="patch_4">
    <path d="M 240.48 217.053563 
L 240.48 25.053563 
" style="fill: none; stroke: #cdd4dc; stroke-width: 0.8; stroke-linejoin: miter; stroke-linecap: square"/>
   </g>
   <g id="patch_5">
    <path d="M 7.2 217.053563 
L 240.48 217.053563 
" style="fill: none; stroke: #cdd4dc; stroke-width: 0.8; stroke-linejoin: miter; stroke-linecap: square"/>
   </g>
   <g id="patch_6">
    <path d="M 7.2 25.053563 
L 240.48 25.053563 
" style="fill: none; stroke: #cdd4dc; stroke-width: 0.8; stroke-linejoin: miter; stroke-linecap: square"/>
   </g>
   <g id="PathCollection_1">
    <defs>
     <path id="m77761aadf9" d="M 0 2.915476 
C 0.773193 2.915476 1.514823 2.608283 2.061553 2.061553 
C 2.608283 1.514823 2.915476 0.773193 2.915476 0 
C 2.915476 -0.773193 2.608283 -1.514823 2.061553 -2.061553 
C 1.514823 -2.608283 0.773193 -2.915476 0 -2.915476 
C -0.773193 -2.915476 -1.514823 -2.608283 -2.061553 -2.061553 
C -2.608283 -1.514823 -2.915476 -0.773193 -2.915476 0 
C -2.915476 0.773193 -2.608283 1.514823 -2.061553 2.061553 
C -1.514823 2.608283 -0.773193 2.915476 0 2.915476 
z
" style="stroke: #1f2933"/>
    </defs>
    <g clip-path="url(#pbe9b82250f)">
     <use xlink:href="#m77761aadf9" x="17.803636" y="121.041753" style="fill: #1f2933; stroke: #1f2933"/>
     <use xlink:href="#m77761aadf9" x="34.116923" y="93.400369" style="fill: #1f2933; stroke: #1f2933"/>
     <use xlink:href="#m77761aadf9" x="50.43021" y="79.792813" style="fill: #1f2933; stroke: #1f2933"/>
     <use xlink:href="#m77761aadf9" x="66.743497" y="76.658771" style="fill: #1f2933; stroke: #1f2933"/>
     <use xlink:href="#m77761aadf9" x="83.056783" y="75.550869" style="fill: #1f2933; stroke: #1f2933"/>
     <use xlink:href="#m77761aadf9" x="99.37007" y="95.206828" style="fill: #1f2933; stroke: #1f2933"/>
     <use xlink:href="#m77761aadf9" x="115.683357" y="107.712682" style="fill: #1f2933; stroke: #1f2933"/>
     <use xlink:href="#m77761aadf9" x="131.996643" y="120.950998" style="fill: #1f2933; stroke: #1f2933"/>
     <use xlink:href="#m77761aadf9" x="148.30993" y="161.145287" style="fill: #1f2933; stroke: #1f2933"/>
     <use xlink:href="#m77761aadf9" x="164.623217" y="176.877654" style="fill: #1f2933; stroke: #1f2933"/>
     <use xlink:href="#m77761aadf9" x="180.936503" y="169.295552" style="fill: #1f2933; stroke: #1f2933"/>
     <use xlink:href="#m77761aadf9" x="197.24979" y="161.51992" style="fill: #1f2933; stroke: #1f2933"/>
     <use xlink:href="#m77761aadf9" x="213.563077" y="144.826822" style="fill: #1f2933; stroke: #1f2933"/>
     <use xlink:href="#m77761aadf9" x="229.876364" y="129.986056" style="fill: #1f2933; stroke: #1f2933"/>
    </g>
   </g>
   <g id="text_1">
    <text style="font-size: 11px; font-family: 'DejaVu Sans'; text-anchor: start; fill: #7b8794" x="22.045091" y="209.053563" transform="rotate(-0 22.045091 209.053563)">too simple</text>
   </g>
   <g id="text_2">
    <text style="font-weight: 700; font-size: 15.6px; font-family: 'DejaVu Sans'; text-anchor: middle; fill: #7a1f2b" x="123.84" y="19.053563" transform="rotate(-0 123.84 19.053563)">Underfit</text>
   </g>
  </g>
  <g id="axes_2">
   <g id="patch_7">
    <path d="M 254.52 217.053563 
L 487.8 217.053563 
L 487.8 25.053563 
L 254.52 25.053563 
L 254.52 217.053563 
z
" style="fill: none"/>
   </g>
   <g id="line2d_3">
    <path d="M 265.123636 121.053563 
L 274.34419 106.664401 
L 279.309103 99.292706 
L 283.564743 93.342418 
L 287.11111 88.716106 
L 290.657476 84.446461 
L 293.49457 81.319337 
L 296.331663 78.472787 
L 299.168756 75.92691 
L 302.00585 73.699684 
L 304.842943 71.806836 
L 306.970763 70.614766 
L 309.098583 69.623089 
L 311.226403 68.835744 
L 313.354223 68.25586 
L 315.482043 67.885739 
L 317.609863 67.726853 
L 319.737683 67.779832 
L 321.865503 68.044467 
L 323.993323 68.519706 
L 326.121143 69.203661 
L 328.248963 70.093614 
L 330.376783 71.18603 
L 332.504603 72.476568 
L 335.341697 74.496503 
L 338.17879 76.84519 
L 341.015883 79.506043 
L 343.852977 82.460273 
L 347.399343 86.533658 
L 350.94571 90.987782 
L 354.492077 95.773518 
L 358.747717 101.879585 
L 364.421903 110.47705 
L 374.35173 126.089409 
L 381.444463 137.054087 
L 386.409377 144.338175 
L 390.665017 150.187085 
L 394.211383 154.711586 
L 397.75775 158.864855 
L 400.594843 161.889248 
L 403.431937 164.62529 
L 406.26903 167.053661 
L 409.106123 169.157214 
L 411.943217 170.921095 
L 414.071037 172.013511 
L 416.198857 172.903464 
L 418.326677 173.587419 
L 420.454497 174.062658 
L 422.582317 174.327293 
L 424.710137 174.380272 
L 426.837957 174.221386 
L 428.965777 173.851265 
L 431.093597 173.271381 
L 433.221417 172.484036 
L 435.349237 171.492359 
L 437.477057 170.300289 
L 440.31415 168.407441 
L 443.151244 166.180215 
L 445.988337 163.634338 
L 448.82543 160.787788 
L 451.662524 157.660664 
L 455.20889 153.391019 
L 458.755257 148.764707 
L 463.010897 142.814419 
L 467.97581 135.442724 
L 474.35927 125.531272 
L 477.196364 121.053563 
L 477.196364 121.053563 
" clip-path="url(#p4cf08f5cdb)" style="fill: none; stroke-dasharray: 5.18,2.24; stroke-dashoffset: 0; stroke: #7b8794; stroke-width: 1.4"/>
   </g>
   <g id="matplotlib.axis_3"/>
   <g id="matplotlib.axis_4"/>
   <g id="line2d_4">
    <path d="M 265.123636 122.98824 
L 267.96073 116.407858 
L 270.797823 110.360024 
L 273.634916 104.830139 
L 276.47201 99.803604 
L 279.309103 95.265818 
L 282.146196 91.202182 
L 284.98329 87.598096 
L 287.820383 84.438961 
L 289.948203 82.352826 
L 292.076023 80.502603 
L 294.203843 78.882135 
L 296.331663 77.485262 
L 298.459483 76.305824 
L 300.587303 75.337662 
L 302.715123 74.574617 
L 304.842943 74.01053 
L 306.970763 73.639241 
L 309.098583 73.454591 
L 311.226403 73.450422 
L 313.354223 73.620573 
L 316.191317 74.107961 
L 319.02841 74.879703 
L 321.865503 75.9212 
L 324.702597 77.217851 
L 327.53969 78.755058 
L 330.376783 80.51822 
L 333.92315 83.017681 
L 337.469517 85.81887 
L 341.015883 88.893272 
L 345.271523 92.903047 
L 349.527163 97.215914 
L 354.492077 102.56493 
L 360.166263 109.000747 
L 367.96827 118.205356 
L 383.572283 136.71728 
L 389.955743 143.884291 
L 394.920657 149.133818 
L 399.176297 153.34196 
L 403.431937 157.229057 
L 406.978303 160.187514 
L 410.52467 162.86029 
L 414.071037 165.218871 
L 416.90813 166.860352 
L 419.745223 168.2679 
L 422.582317 169.426913 
L 425.41941 170.322792 
L 428.256503 170.940938 
L 431.093597 171.26675 
L 433.221417 171.310483 
L 435.349237 171.175407 
L 437.477057 170.855364 
L 439.604877 170.344192 
L 441.732697 169.635734 
L 443.860517 168.72383 
L 445.988337 167.602321 
L 448.116157 166.265047 
L 450.243977 164.70585 
L 452.371797 162.91857 
L 454.499617 160.897048 
L 456.627437 158.635124 
L 459.46453 155.234623 
L 462.301624 151.381192 
L 465.138717 147.060232 
L 467.97581 142.257143 
L 470.812904 136.957325 
L 473.649997 131.146179 
L 476.48709 124.809105 
L 477.196364 123.140949 
L 477.196364 123.140949 
" clip-path="url(#p4cf08f5cdb)" style="fill: none; stroke: #b8232f; stroke-width: 2.4; stroke-linecap: square"/>
   </g>
   <g id="patch_8">
    <path d="M 254.52 217.053563 
L 254.52 25.053563 
" style="fill: none; stroke: #cdd4dc; stroke-width: 0.8; stroke-linejoin: miter; stroke-linecap: square"/>
   </g>
   <g id="patch_9">
    <path d="M 487.8 217.053563 
L 487.8 25.053563 
" style="fill: none; stroke: #cdd4dc; stroke-width: 0.8; stroke-linejoin: miter; stroke-linecap: square"/>
   </g>
   <g id="patch_10">
    <path d="M 254.52 217.053563 
L 487.8 217.053563 
" style="fill: none; stroke: #cdd4dc; stroke-width: 0.8; stroke-linejoin: miter; stroke-linecap: square"/>
   </g>
   <g id="patch_11">
    <path d="M 254.52 25.053563 
L 487.8 25.053563 
" style="fill: none; stroke: #cdd4dc; stroke-width: 0.8; stroke-linejoin: miter; stroke-linecap: square"/>
   </g>
   <g id="PathCollection_2">
    <g clip-path="url(#p4cf08f5cdb)">
     <use xlink:href="#m77761aadf9" x="265.123636" y="121.041753" style="fill: #1f2933; stroke: #1f2933"/>
     <use xlink:href="#m77761aadf9" x="281.436923" y="93.400369" style="fill: #1f2933; stroke: #1f2933"/>
     <use xlink:href="#m77761aadf9" x="297.75021" y="79.792813" style="fill: #1f2933; stroke: #1f2933"/>
     <use xlink:href="#m77761aadf9" x="314.063497" y="76.658771" style="fill: #1f2933; stroke: #1f2933"/>
     <use xlink:href="#m77761aadf9" x="330.376783" y="75.550869" style="fill: #1f2933; stroke: #1f2933"/>
     <use xlink:href="#m77761aadf9" x="346.69007" y="95.206828" style="fill: #1f2933; stroke: #1f2933"/>
     <use xlink:href="#m77761aadf9" x="363.003357" y="107.712682" style="fill: #1f2933; stroke: #1f2933"/>
     <use xlink:href="#m77761aadf9" x="379.316643" y="120.950998" style="fill: #1f2933; stroke: #1f2933"/>
     <use xlink:href="#m77761aadf9" x="395.62993" y="161.145287" style="fill: #1f2933; stroke: #1f2933"/>
     <use xlink:href="#m77761aadf9" x="411.943217" y="176.877654" style="fill: #1f2933; stroke: #1f2933"/>
     <use xlink:href="#m77761aadf9" x="428.256503" y="169.295552" style="fill: #1f2933; stroke: #1f2933"/>
     <use xlink:href="#m77761aadf9" x="444.56979" y="161.51992" style="fill: #1f2933; stroke: #1f2933"/>
     <use xlink:href="#m77761aadf9" x="460.883077" y="144.826822" style="fill: #1f2933; stroke: #1f2933"/>
     <use xlink:href="#m77761aadf9" x="477.196364" y="129.986056" style="fill: #1f2933; stroke: #1f2933"/>
    </g>
   </g>
   <g id="text_3">
    <text style="font-size: 11px; font-family: 'DejaVu Sans'; text-anchor: start; fill: #137333" x="269.365091" y="209.053563" transform="rotate(-0 269.365091 209.053563)">captures the trend</text>
   </g>
   <g id="text_4">
    <text style="font-weight: 700; font-size: 15.6px; font-family: 'DejaVu Sans'; text-anchor: middle; fill: #7a1f2b" x="371.16" y="19.053563" transform="rotate(-0 371.16 19.053563)">Good fit</text>
   </g>
  </g>
  <g id="axes_3">
   <g id="patch_12">
    <path d="M 501.84 217.053563 
L 735.12 217.053563 
L 735.12 25.053563 
L 501.84 25.053563 
L 501.84 217.053563 
z
" style="fill: none"/>
   </g>
   <g id="line2d_5">
    <path d="M 512.443636 121.053563 
L 521.66419 106.664401 
L 526.629103 99.292706 
L 530.884743 93.342418 
L 534.43111 88.716106 
L 537.977476 84.446461 
L 540.81457 81.319337 
L 543.651663 78.472787 
L 546.488756 75.92691 
L 549.32585 73.699684 
L 552.162943 71.806836 
L 554.290763 70.614766 
L 556.418583 69.623089 
L 558.546403 68.835744 
L 560.674223 68.25586 
L 562.802043 67.885739 
L 564.929863 67.726853 
L 567.057683 67.779832 
L 569.185503 68.044467 
L 571.313323 68.519706 
L 573.441143 69.203661 
L 575.568963 70.093614 
L 577.696783 71.18603 
L 579.824603 72.476568 
L 582.661697 74.496503 
L 585.49879 76.84519 
L 588.335883 79.506043 
L 591.172977 82.460273 
L 594.719343 86.533658 
L 598.26571 90.987782 
L 601.812077 95.773518 
L 606.067717 101.879585 
L 611.741903 110.47705 
L 621.67173 126.089409 
L 628.764463 137.054087 
L 633.729377 144.338175 
L 637.985017 150.187085 
L 641.531383 154.711586 
L 645.07775 158.864855 
L 647.914843 161.889248 
L 650.751937 164.62529 
L 653.58903 167.053661 
L 656.426123 169.157214 
L 659.263217 170.921095 
L 661.391037 172.013511 
L 663.518857 172.903464 
L 665.646677 173.587419 
L 667.774497 174.062658 
L 669.902317 174.327293 
L 672.030137 174.380272 
L 674.157957 174.221386 
L 676.285777 173.851265 
L 678.413597 173.271381 
L 680.541417 172.484036 
L 682.669237 171.492359 
L 684.797057 170.300289 
L 687.63415 168.407441 
L 690.471244 166.180215 
L 693.308337 163.634338 
L 696.14543 160.787788 
L 698.982524 157.660664 
L 702.52889 153.391019 
L 706.075257 148.764707 
L 710.330897 142.814419 
L 715.29581 135.442724 
L 721.67927 125.531272 
L 724.516364 121.053563 
L 724.516364 121.053563 
" clip-path="url(#p82dff3774a)" style="fill: none; stroke-dasharray: 5.18,2.24; stroke-dashoffset: 0; stroke: #7b8794; stroke-width: 1.4"/>
   </g>
   <g id="matplotlib.axis_5"/>
   <g id="matplotlib.axis_6"/>
   <g id="line2d_6">
    <path d="M 512.443636 121.040746 
L 513.15291 153.222559 
L 513.862183 177.438834 
L 514.571456 194.855504 
L 515.28073 206.513712 
L 515.990003 213.340151 
L 516.699276 216.156733 
L 517.40855 215.689606 
L 518.117823 212.577577 
L 518.827096 207.379947 
L 519.53637 200.583809 
L 520.954916 183.823547 
L 525.91983 120.049875 
L 527.338376 105.446848 
L 528.756923 93.413464 
L 530.17547 84.007907 
L 530.884743 80.259594 
L 531.594016 77.114517 
L 532.30329 74.540273 
L 533.012563 72.499994 
L 533.721836 70.95353 
L 534.43111 69.858476 
L 535.140383 69.171087 
L 535.849656 68.847065 
L 536.55893 68.842248 
L 537.268203 69.113194 
L 537.977476 69.617675 
L 539.396023 71.166831 
L 540.81457 73.190151 
L 545.07021 79.714246 
L 546.488756 81.46246 
L 547.907303 82.816023 
L 549.32585 83.724865 
L 550.744396 84.172319 
L 552.162943 84.170205 
L 553.58149 83.753688 
L 555.000036 82.976137 
L 556.418583 81.904145 
L 558.546403 79.909736 
L 564.22059 74.192684 
L 565.639137 73.057871 
L 567.057683 72.153889 
L 568.47623 71.5194 
L 569.894777 71.181798 
L 571.313323 71.157205 
L 572.73187 71.450824 
L 574.150417 72.057614 
L 575.568963 72.963214 
L 576.98751 74.145092 
L 578.406057 75.573827 
L 580.533877 78.102297 
L 583.37097 81.982085 
L 591.172977 93.105659 
L 593.300797 95.707313 
L 595.428617 97.978943 
L 597.556437 99.893467 
L 599.684257 101.455225 
L 601.812077 102.698303 
L 603.939897 103.683209 
L 606.77699 104.739328 
L 611.03263 106.263575 
L 613.16045 107.235126 
L 615.28827 108.485978 
L 617.41609 110.106618 
L 618.834637 111.429092 
L 620.253183 112.964523 
L 622.381003 115.689696 
L 624.508823 118.932414 
L 626.636643 122.679471 
L 628.764463 126.889803 
L 631.601557 133.104368 
L 635.147923 141.514349 
L 640.82211 155.124138 
L 643.659203 161.340516 
L 645.787023 165.507598 
L 647.914843 169.139193 
L 649.33339 171.224378 
L 650.751937 173.021526 
L 652.170483 174.520421 
L 653.58903 175.716758 
L 655.007577 176.612236 
L 656.426123 177.214479 
L 657.84467 177.536807 
L 659.263217 177.597851 
L 660.681763 177.421004 
L 662.10031 177.033733 
L 664.22813 176.126137 
L 666.35595 174.927061 
L 669.902317 172.593704 
L 674.157957 169.824932 
L 676.99505 168.26301 
L 679.832144 166.994266 
L 683.37851 165.7058 
L 686.924877 164.404067 
L 689.052697 163.407383 
L 691.180517 162.112493 
L 692.599064 161.039057 
L 694.726884 159.076071 
L 696.854704 156.696795 
L 699.691797 153.036761 
L 703.238164 148.401418 
L 704.65671 146.846158 
L 706.075257 145.648631 
L 706.78453 145.225901 
L 707.493804 144.942455 
L 708.203077 144.813726 
L 708.91235 144.853708 
L 709.621624 145.074322 
L 710.330897 145.484706 
L 711.04017 146.090395 
L 711.749444 146.892394 
L 713.16799 149.060321 
L 714.586537 151.86306 
L 717.42363 158.049445 
L 718.132904 159.288917 
L 718.842177 160.1843 
L 719.55145 160.584263 
L 720.260724 160.309414 
L 720.969997 159.148907 
L 721.67927 156.856747 
L 722.388544 153.14777 
L 723.097817 147.693305 
L 723.80709 140.116465 
L 724.516364 129.987063 
L 724.516364 129.987063 
" clip-path="url(#p82dff3774a)" style="fill: none; stroke: #b8232f; stroke-width: 2.4; stroke-linecap: square"/>
   </g>
   <g id="patch_13">
    <path d="M 501.84 217.053563 
L 501.84 25.053563 
" style="fill: none; stroke: #cdd4dc; stroke-width: 0.8; stroke-linejoin: miter; stroke-linecap: square"/>
   </g>
   <g id="patch_14">
    <path d="M 735.12 217.053563 
L 735.12 25.053563 
" style="fill: none; stroke: #cdd4dc; stroke-width: 0.8; stroke-linejoin: miter; stroke-linecap: square"/>
   </g>
   <g id="patch_15">
    <path d="M 501.84 217.053563 
L 735.12 217.053563 
" style="fill: none; stroke: #cdd4dc; stroke-width: 0.8; stroke-linejoin: miter; stroke-linecap: square"/>
   </g>
   <g id="patch_16">
    <path d="M 501.84 25.053563 
L 735.12 25.053563 
" style="fill: none; stroke: #cdd4dc; stroke-width: 0.8; stroke-linejoin: miter; stroke-linecap: square"/>
   </g>
   <g id="PathCollection_3">
    <g clip-path="url(#p82dff3774a)">
     <use xlink:href="#m77761aadf9" x="512.443636" y="121.041753" style="fill: #1f2933; stroke: #1f2933"/>
     <use xlink:href="#m77761aadf9" x="528.756923" y="93.400369" style="fill: #1f2933; stroke: #1f2933"/>
     <use xlink:href="#m77761aadf9" x="545.07021" y="79.792813" style="fill: #1f2933; stroke: #1f2933"/>
     <use xlink:href="#m77761aadf9" x="561.383497" y="76.658771" style="fill: #1f2933; stroke: #1f2933"/>
     <use xlink:href="#m77761aadf9" x="577.696783" y="75.550869" style="fill: #1f2933; stroke: #1f2933"/>
     <use xlink:href="#m77761aadf9" x="594.01007" y="95.206828" style="fill: #1f2933; stroke: #1f2933"/>
     <use xlink:href="#m77761aadf9" x="610.323357" y="107.712682" style="fill: #1f2933; stroke: #1f2933"/>
     <use xlink:href="#m77761aadf9" x="626.636643" y="120.950998" style="fill: #1f2933; stroke: #1f2933"/>
     <use xlink:href="#m77761aadf9" x="642.94993" y="161.145287" style="fill: #1f2933; stroke: #1f2933"/>
     <use xlink:href="#m77761aadf9" x="659.263217" y="176.877654" style="fill: #1f2933; stroke: #1f2933"/>
     <use xlink:href="#m77761aadf9" x="675.576503" y="169.295552" style="fill: #1f2933; stroke: #1f2933"/>
     <use xlink:href="#m77761aadf9" x="691.88979" y="161.51992" style="fill: #1f2933; stroke: #1f2933"/>
     <use xlink:href="#m77761aadf9" x="708.203077" y="144.826822" style="fill: #1f2933; stroke: #1f2933"/>
     <use xlink:href="#m77761aadf9" x="724.516364" y="129.986056" style="fill: #1f2933; stroke: #1f2933"/>
    </g>
   </g>
   <g id="text_5">
    <text style="font-size: 11px; font-family: 'DejaVu Sans'; text-anchor: start; fill: #b8232f" x="516.685091" y="209.053563" transform="rotate(-0 516.685091 209.053563)">memorizes noise</text>
   </g>
   <g id="text_6">
    <text style="font-weight: 700; font-size: 15.6px; font-family: 'DejaVu Sans'; text-anchor: middle; fill: #7a1f2b" x="618.48" y="19.053563" transform="rotate(-0 618.48 19.053563)">Overfit</text>
   </g>
  </g>
 </g>
 <defs>
  <clipPath id="pbe9b82250f">
   <rect x="7.2" y="25.053563" width="233.28" height="192"/>
  </clipPath>
  <clipPath id="p4cf08f5cdb">
   <rect x="254.52" y="25.053563" width="233.28" height="192"/>
  </clipPath>
  <clipPath id="p82dff3774a">
   <rect x="501.84" y="25.053563" width="233.28" height="192"/>
  </clipPath>
 </defs>
</svg>
